<?xml version="1.0" encoding="utf-8"?>
<!-- Generator: Adobe Illustrator 24.2.0, SVG Export Plug-In . SVG Version: 6.00 Build 0)  -->
<svg version="1.1" id="Layer_1" xmlns="http://www.w3.org/2000/svg" xmlns:xlink="http://www.w3.org/1999/xlink" x="0px" y="0px"
	 viewBox="0 0 76.9 64.7" style="enable-background:new 0 0 76.9 64.7;" xml:space="preserve">
<style type="text/css">
	.st0{fill:#907CDE;}
</style>
<g>
	<path class="st0" d="M45.7,45.2c-0.3,0-0.7,0-1,0c-3.2,3.1-7.5,5-12.3,5c-9.8,0-17.8-8-17.8-17.8c0-1.7,0.3-3.4,0.7-5
		c-0.4-0.6-0.7-1.3-1-2c-2.2-4.7-3.4-9.7-3.4-15c0-0.8,0-1.5,0.1-2.2C4.2,14.1,0,22.7,0,32.3c0,17.8,14.5,32.3,32.3,32.3
		c15.1,0,27.9-10.4,31.4-24.5c-5.1,3.1-10.8,4.8-16.8,5C46.4,45.2,46,45.2,45.7,45.2z"/>
	<path class="st0" d="M74.6,12.5c0,0-0.1-0.1-0.1-0.1c-3.9-3.8-10.3-1.9-11.9,3.3c-0.3,1-0.7,1.9-1.1,2.8v0c-0.3,0.6-0.6,1.1-1,1.6
		c0,0,0,0.1-0.1,0.1c-0.3,0.5-0.7,1-1.1,1.5c-0.2,0.3-0.4,0.5-0.6,0.7c-0.2,0.2-0.3,0.4-0.5,0.5c-0.1,0.1-0.2,0.2-0.4,0.4
		c-0.2,0.1-0.3,0.3-0.5,0.4c-0.1,0.1-0.1,0.1-0.2,0.1c-0.2,0.2-0.3,0.3-0.5,0.4C55.9,25,55,25.5,54.1,26c-0.2,0.1-0.4,0.2-0.6,0.3
		c-0.6,0.3-1.3,0.6-1.9,0.8c-0.3,0.1-0.5,0.2-0.8,0.3c-0.3,0.1-0.5,0.1-0.8,0.2c-0.1,0-0.3,0.1-0.4,0.1c0,0-0.1,0-0.1,0
		c-0.3,0.1-0.5,0.1-0.8,0.1c0,0-0.1,0-0.1,0c-0.2,0-0.3,0-0.5,0.1c-0.2,0-0.4,0-0.6,0.1c-0.3,0-0.5,0-0.7,0c-0.3,0-0.7,0-1,0
		c-0.4,0-0.8,0-1.1,0c0,0,0,0,0,0c-0.4,0-0.8-0.1-1.1-0.1c-0.3,0-0.5-0.1-0.8-0.1c-0.2,0-0.4-0.1-0.6-0.1c-0.3-0.1-0.6-0.1-0.9-0.2
		c-0.3-0.1-0.5-0.2-0.8-0.2c-0.1,0-0.3-0.1-0.4-0.1c-0.4-0.1-0.7-0.3-1.1-0.4c-0.3-0.1-0.6-0.3-0.9-0.4c-0.3-0.1-0.5-0.3-0.8-0.4
		c-0.2-0.1-0.3-0.2-0.5-0.3c-0.2-0.1-0.4-0.2-0.6-0.4c-0.2-0.1-0.4-0.3-0.6-0.4c-0.2-0.1-0.4-0.3-0.6-0.4c-0.6-0.4-1.1-0.9-1.6-1.4
		c-0.2-0.2-0.3-0.3-0.5-0.5c0,0,0,0,0,0c-0.3-0.3-0.6-0.7-0.9-1.1c0,0,0,0,0,0c-0.4-0.6-0.8-1.1-1.2-1.7c0,0,0,0,0,0
		c-0.1-0.2-0.3-0.4-0.4-0.6c-0.3-0.6-0.6-1.2-0.9-1.8c-0.1-0.2-0.1-0.3-0.2-0.5c0,0,0,0,0,0c-0.4-0.9,0.3-1.9,1.3-2
		c0.2,0,0.4,0,0.6-0.1c0.5,0,0.9-0.1,1.4-0.1c7.3,0,13.6,4.4,16.4,10.8c0.1,0,0.1,0,0.2,0c0.1,0,0.3-0.1,0.4-0.1
		c0.4-0.1,0.7-0.2,1.1-0.3c0.2-0.1,0.4-0.1,0.6-0.2c0.3-0.1,0.6-0.2,0.8-0.3c0.2-0.1,0.4-0.2,0.6-0.3c0.4-0.2,0.8-0.4,1.2-0.6
		c0.2-0.1,0.4-0.2,0.6-0.4c0.2-0.1,0.5-0.3,0.7-0.5c0.2-0.1,0.4-0.3,0.5-0.4c0.2-0.2,0.5-0.4,0.7-0.6c0.1-0.1,0.3-0.3,0.4-0.4
		c0.2-0.2,0.4-0.4,0.5-0.6c0.2-0.2,0.4-0.4,0.6-0.6c0.3-0.4,0.6-0.7,0.8-1.1c0-0.1,0.1-0.1,0.1-0.2c0.3-0.5,0.6-1,0.8-1.5l0.2-0.3
		c0.2-0.4,0.4-0.9,0.5-1.3c-5.3-8.9-14.8-15-25.8-15.6C33.6,0,33,0,32.3,0c-0.4,0-0.8,0-1.2,0C24.6,0.3,18.6,2.4,13.6,6
		c-0.2,1.4-0.3,2.9-0.3,4.4c0,5,1.1,9.7,3.1,13.9c1,2,2.1,3.9,3.4,5.6v0c0.2,0.3,0.4,0.6,0.7,0.9s0.5,0.6,0.7,0.8
		c0.5,0.6,1,1.1,1.5,1.6c0.2,0.2,0.4,0.4,0.7,0.7c0.2,0.2,0.5,0.4,0.7,0.6c0.2,0.2,0.5,0.4,0.7,0.6c0.3,0.3,0.6,0.5,0.9,0.7
		c0.6,0.5,1.2,1,1.9,1.4c0.2,0.2,0.5,0.3,0.7,0.5c0.8,0.5,1.6,1,2.4,1.4c0.3,0.1,0.5,0.3,0.8,0.4c0.3,0.1,0.5,0.3,0.8,0.4
		c0.3,0.1,0.5,0.2,0.8,0.3c0.5,0.2,1.1,0.4,1.6,0.6c0.4,0.2,0.8,0.3,1.3,0.4c0.1,0,0.2,0,0.3,0.1c0.8,0.2,1.6,0.5,2.4,0.6
		c0.5,0.1,1,0.2,1.5,0.3c0.4,0.1,0.8,0.1,1.2,0.2c0.5,0.1,0.9,0.1,1.4,0.1c0.5,0,0.9,0.1,1.4,0.1c0.5,0,0.9,0,1.4,0h0
		c0.4,0,0.7,0,1.1,0c0,0,0.1,0,0.1,0c0.1,0,0.1,0,0.2,0c0.1,0,0.3,0,0.4,0c0.3,0,0.6,0,0.8-0.1c0.2,0,0.5,0,0.7-0.1
		c0.2,0,0.4,0,0.5-0.1c0.3,0,0.5-0.1,0.8-0.1c0.4-0.1,0.8-0.1,1.2-0.2c0.2,0,0.4-0.1,0.6-0.1c0.3,0,0.6-0.1,0.9-0.2
		c0.1,0,0.3-0.1,0.5-0.1c0.4-0.1,0.8-0.2,1.1-0.3c0.9-0.3,1.9-0.6,2.8-0.9c0.3-0.1,0.5-0.2,0.8-0.3c0.1,0,0.1,0,0.2-0.1l0.9-0.4
		c0.8-0.4,1.5-0.7,2.2-1.2c0.3-0.2,0.5-0.3,0.8-0.5c0.7-0.4,1.3-0.8,1.9-1.3c1.5-1,2.8-2.2,4.2-3.5c0.3-0.3,0.5-0.5,0.8-0.8
		c3.5-3.7,5.9-8.1,7.3-12.7c0.7-2.5,0.1-5.1-1.7-7C74.8,12.6,74.7,12.6,74.6,12.5z"/>
</g>
</svg>
